<svg
    xmlns="http://www.w3.org/2000/svg"
    viewBox="0 0 64 64"
    width="64"
    height="64"
>
    <path
        d="M32 2C15.4 2 2 15.4 2 32c0 12.5 7.4 23.2 18.1 28.1 1.2.4 2.5-.5 2.9-1.7.4-1.2-.5-2.5-1.7-2.9C9.5 53.1 4 43.1 4 32c0-14.4 11.6-26 26-26s26 11.6 26 26c0 11.1-5.5 21.1-15.3 25.5-1.2.4-2.1 1.7-1.7 2.9.4 1.2 1.7 1.7 2.9 1.7C56.6 55.2 64 44.5 64 32 64 15.4 50.6 2 32 2z"
        fill="#f0c0a0"
    />
    <circle cx="20" cy="28" r="4" fill="#ff0000" />
    <circle cx="28" cy="20" r="4" fill="#00ff00" />
    <circle cx="36" cy="28" r="4" fill="#0000ff" />
    <circle cx="24" cy="36" r="4" fill="#ffff00" />
    <path
        d="M40 48l-8-8-4 4 8 8 4-4z"
        fill="#000"
    />
</svg>
