<svg width="20" height="23" viewBox="0 0 20 23" fill="none" xmlns="http://www.w3.org/2000/svg">
<path d="M18.974 15.5556C18.3712 17.2238 17.3527 18.7145 16.0011 19.9068C14.6495 21.0992 13.0027 21.9598 11.1941 22.419C9.38543 22.8782 7.46576 22.923 5.59048 22.5498C3.7152 22.1766 1.93702 21.396 0.399902 20.271C2.97377 20.4397 5.49576 19.8308 7.599 18.5329C9.70224 17.2351 11.277 15.316 12.0943 13.0548C12.9115 10.7937 12.9286 8.30836 12.143 5.96044C11.3575 3.61251 9.81024 1.52446 7.7264 0C9.62527 0.124041 11.4893 0.667312 13.1674 1.58583C14.8456 2.50435 16.2908 3.77229 17.386 5.28702C18.4813 6.80175 19.1957 8.52068 19.4716 10.3046C19.7475 12.0886 19.577 13.8875 18.974 15.5556Z" fill="#121212"/>
</svg>
